<svg xmlns="http://www.w3.org/2000/svg" xmlns:xlink="http://www.w3.org/1999/xlink" version="1.1" width="1000" height="1000" viewBox="0 0 1000 1000" xml:space="preserve">
<desc>Created with Fabric.js 3.5.0</desc>
<defs>
</defs>
<rect x="0" y="0" width="100%" height="100%" fill="#ffffff"/>
<g transform="matrix(5.5675 0 0 5.5675 533.0176 469.3383)" id="607979">
<path style="stroke: rgb(48,110,81); stroke-width: 30; stroke-dasharray: none; stroke-linecap: butt; stroke-dashoffset: 0; stroke-linejoin: miter; stroke-miterlimit: 4; is-custom-font: none; font-file-url: none; fill: none; fill-rule: nonzero; opacity: 1;" vector-effect="non-scaling-stroke" transform=" translate(-67.5, -67.5)" d="M 132.5 67.5 C 132.5 103.399 103.399 132.5 67.5 132.5 C 31.6015 132.5 2.5 103.399 2.5 67.5 C 2.5 31.6015 31.6015 2.5 67.5 2.5 C 103.399 2.5 132.5 31.6015 132.5 67.5 Z" stroke-linecap="round"/>
</g>
<g transform="matrix(0.7162 0 0 0.7162 549.5394 363.2164)" id="304229">
<path style="stroke: none; stroke-width: 1; stroke-dasharray: none; stroke-linecap: butt; stroke-dashoffset: 0; stroke-linejoin: miter; stroke-miterlimit: 4; is-custom-font: none; font-file-url: none; fill: rgb(48,110,81); fill-rule: nonzero; opacity: 1;" vector-effect="non-scaling-stroke" transform=" translate(-320, -256)" d="M 624 352 h -16 V 243.9 c 0 -12.7 -5.1 -24.9 -14.1 -33.9 L 494 110.1 c -9 -9 -21.2 -14.1 -33.9 -14.1 H 416 V 48 c 0 -26.5 -21.5 -48 -48 -48 H 112 C 85.5 0 64 21.5 64 48 v 48 H 8 c -4.4 0 -8 3.6 -8 8 v 16 c 0 4.4 3.6 8 8 8 h 272 c 4.4 0 8 3.6 8 8 v 16 c 0 4.4 -3.6 8 -8 8 H 40 c -4.4 0 -8 3.6 -8 8 v 16 c 0 4.4 3.6 8 8 8 h 208 c 4.4 0 8 3.6 8 8 v 16 c 0 4.4 -3.6 8 -8 8 H 8 c -4.4 0 -8 3.6 -8 8 v 16 c 0 4.4 3.6 8 8 8 h 208 c 4.4 0 8 3.6 8 8 v 16 c 0 4.4 -3.6 8 -8 8 H 64 v 128 c 0 53 43 96 96 96 s 96 -43 96 -96 h 128 c 0 53 43 96 96 96 s 96 -43 96 -96 h 48 c 8.8 0 16 -7.2 16 -16 v -32 c 0 -8.8 -7.2 -16 -16 -16 z M 160 464 c -26.5 0 -48 -21.5 -48 -48 s 21.5 -48 48 -48 s 48 21.5 48 48 s -21.5 48 -48 48 z m 320 0 c -26.5 0 -48 -21.5 -48 -48 s 21.5 -48 48 -48 s 48 21.5 48 48 s -21.5 48 -48 48 z m 80 -208 H 416 V 144 h 44.1 l 99.9 99.9 V 256 z" stroke-linecap="round"/>
</g>
<g transform="matrix(1 0 0 1 539.117 628.0883)" style="" id="832743">
		
<path xml:space="preserve" font-family="Allan" font-size="129" font-style="normal" font-weight="bold" style="stroke: none; stroke-width: 1; stroke-dasharray: none; stroke-linecap: butt; stroke-dashoffset: 0; stroke-linejoin: miter; stroke-miterlimit: 4; is-custom-font: none; font-file-url: none; fill: rgb(48,110,81); fill-rule: nonzero; opacity: 1; white-space: pre;" d="M-233.77-35.69L-240.26-10.12L-218.85-10.12Q-215.38-10.06-216.20-6.09L-216.20-6.09L-217.71 1.35Q-217.90 2.10-218.34 2.86L-218.34 2.86Q-219.73 4.87-221.74 4.87L-221.74 4.87L-244.10 4.87L-252.48 37.75Q-253.24 40.46-256.26 40.52L-256.26 40.52L-266.97 40.52Q-267.79 40.52-268.42 40.15L-268.42 40.15Q-270.06 39.08-269.49 36.62L-269.49 36.62L-251.03-35.69L-255.51-35.69Q-256.01-35.69-256.45-35.75L-256.45-35.75Q-258.97-36.20-257.90-40.23L-257.90-40.23L-255.88-48.16Q-255.63-49.30-255.32-49.86L-255.32-49.86Q-254.88-50.68-253.36-50.68L-253.36-50.68L-244.17-50.68L-233.46-50.68L-206.63-50.68Q-202.91-50.62-203.73-46.65L-203.73-46.65L-205.37-39.22Q-205.56-38.46-206.06-37.71L-206.06-37.71Q-207.51-35.69-209.65-35.69L-209.65-35.69L-233.77-35.69Z"/><path xml:space="preserve" font-family="Allan" font-size="129" font-style="normal" font-weight="bold" style="stroke: none; stroke-width: 1; stroke-dasharray: none; stroke-linecap: butt; stroke-dashoffset: 0; stroke-linejoin: miter; stroke-miterlimit: 4; is-custom-font: none; font-file-url: none; fill: rgb(48,110,81); fill-rule: nonzero; opacity: 1; white-space: pre;" d="M-166.48-1.30L-166.48-1.30L-176.75 37.75Q-177.50 40.46-180.52 40.52L-180.52 40.52L-190.73 40.52Q-194.26 40.40-193.50 37.63L-193.50 37.63L-177.12-24.73Q-176.37-27.44-173.34-27.50L-173.34-27.50L-163.14-27.50Q-159.61-27.38-160.37-24.61L-160.37-24.61L-162.64-16.10Q-159.99-19.94-157.60-22.84L-157.60-22.84Q-155.39-25.61-153.57-26.87L-153.57-26.87Q-152.12-27.88-148.27-27.88L-148.27-27.88L-141.35-27.88Q-139.71-27.88-138.95-27.22Q-138.20-26.56-138.79-25.05Q-139.39-23.53-141.72-21.46L-141.72-21.46Q-142.04-21.14-142.48-20.76L-142.48-20.76Q-144.81-18.56-149.53-12.64L-149.53-12.64Q-152.75-8.48-152.81-6.84L-152.81-6.84Q-152.75-3.63-149.66-0.67L-149.66-0.67Q-149.22-0.23-149.41 0.40L-149.41 0.40Q-149.98 1.60-152.05 1.72L-152.05 1.72L-161.00 2.48Q-163.14 2.61-164.40 1.72L-164.40 1.72Q-165.09 1.22-166.48-1.30Z"/><path xml:space="preserve" font-family="Allan" font-size="129" font-style="normal" font-weight="bold" style="stroke: none; stroke-width: 1; stroke-dasharray: none; stroke-linecap: butt; stroke-dashoffset: 0; stroke-linejoin: miter; stroke-miterlimit: 4; is-custom-font: none; font-file-url: none; fill: rgb(48,110,81); fill-rule: nonzero; opacity: 1; white-space: pre;" d="M-107.31 7.64L-107.31 7.64Q-103.65 5.31-100.69 0.53L-100.69 0.53Q-96.60-6.09-96.60-12.01L-96.60-12.01Q-96.60-13.14-96.72-13.90L-96.72-13.90Q-96.98-15.41-98.24-15.41L-98.24-15.41Q-98.55-15.41-98.93-15.16L-98.93-15.16Q-100.63-13.90-102.27-9.49L-102.27-9.49Q-104.72-3.19-107.31 7.64ZM-110.27 21.38L-110.27 21.38Q-110.65 23.33-110.65 24.34L-110.65 24.34Q-110.65 25.66-108.94 26.41L-108.94 26.41Q-108.94 26.41-107.81 26.04L-107.81 26.04Q-105.73 25.15-101.32 20.12L-101.32 20.12Q-100.76 19.55-100.19 19.05L-100.19 19.05Q-99.24 18.10-97.86 18.98L-97.86 18.98L-91.69 22.76Q-90.80 23.27-90.55 24.08L-90.55 24.08Q-90.24 25.03-90.55 25.53L-90.55 25.53Q-90.99 26.29-91.62 27.17L-91.62 27.17Q-94.84 31.58-101.13 36.62L-101.13 36.62Q-108.31 42.29-111.15 42.29L-111.15 42.29L-111.84 42.29Q-124.06 39.14-125.57 31.96L-125.57 31.96Q-125.95 30.19-125.95 26.10L-125.95 26.10Q-125.95 15.33-120.98 0.02L-120.98 0.02Q-115.81-16.23-110.58-21.08L-110.58-21.08Q-108.82-22.78-106.87-24.10L-106.87-24.10Q-101.57-27.76-96.72-27.76L-96.72-27.76Q-94.14-27.76-91.43-26.62L-91.43-26.62Q-82.99-22.78-82.99-13.77L-82.99-13.77Q-82.99-11.88-83.43-9.74L-83.43-9.74Q-85.20-0.48-93.20 8.78L-93.20 8.78Q-101.13 17.91-110.27 21.38Z"/><path xml:space="preserve" font-family="Allan" font-size="129" font-style="normal" font-weight="bold" style="stroke: none; stroke-width: 1; stroke-dasharray: none; stroke-linecap: butt; stroke-dashoffset: 0; stroke-linejoin: miter; stroke-miterlimit: 4; is-custom-font: none; font-file-url: none; fill: rgb(48,110,81); fill-rule: nonzero; opacity: 1; white-space: pre;" d="M-42.66 7.64L-42.66 7.64Q-39.00 5.31-36.04 0.53L-36.04 0.53Q-31.95-6.09-31.95-12.01L-31.95-12.01Q-31.95-13.14-32.07-13.90L-32.07-13.90Q-32.33-15.41-33.59-15.41L-33.59-15.41Q-33.90-15.41-34.28-15.16L-34.28-15.16Q-35.98-13.90-37.62-9.49L-37.62-9.49Q-40.07-3.19-42.66 7.64ZM-45.62 21.38L-45.62 21.38Q-45.99 23.33-45.99 24.34L-45.99 24.34Q-45.99 25.66-44.29 26.41L-44.29 26.41Q-44.29 26.41-43.16 26.04L-43.16 26.04Q-41.08 25.15-36.67 20.12L-36.67 20.12Q-36.10 19.55-35.54 19.05L-35.54 19.05Q-34.59 18.10-33.21 18.98L-33.21 18.98L-27.03 22.76Q-26.15 23.27-25.90 24.08L-25.90 24.08Q-25.59 25.03-25.90 25.53L-25.90 25.53Q-26.34 26.29-26.97 27.17L-26.97 27.17Q-30.18 31.58-36.48 36.62L-36.48 36.62Q-43.66 42.29-46.50 42.29L-46.50 42.29L-47.19 42.29Q-59.41 39.14-60.92 31.96L-60.92 31.96Q-61.30 30.19-61.30 26.10L-61.30 26.10Q-61.30 15.33-56.32 0.02L-56.32 0.02Q-51.16-16.23-45.93-21.08L-45.93-21.08Q-44.17-22.78-42.21-24.10L-42.21-24.10Q-36.92-27.76-32.07-27.76L-32.07-27.76Q-29.49-27.76-26.78-26.62L-26.78-26.62Q-18.34-22.78-18.34-13.77L-18.34-13.77Q-18.34-11.88-18.78-9.74L-18.78-9.74Q-20.55-0.48-28.55 8.78L-28.55 8.78Q-36.48 17.91-45.62 21.38Z"/><path xml:space="preserve" font-family="Allan" font-size="129" font-style="normal" font-weight="bold" style="stroke: none; stroke-width: 1; stroke-dasharray: none; stroke-linecap: butt; stroke-dashoffset: 0; stroke-linejoin: miter; stroke-miterlimit: 4; is-custom-font: none; font-file-url: none; fill: rgb(48,110,81); fill-rule: nonzero; opacity: 1; white-space: pre;" d="M47.44-52.07L47.44-52.07Q50.09-52.07 52.42-51.44L52.42-51.44Q65.21-47.79 64.83-25.99L64.83-25.99Q64.76-22.72 61.80-21.96L61.80-21.96L52.61-19.57Q51.91-19.38 51.03-19.44L51.03-19.44Q48.32-19.76 48.20-22.21L48.20-22.21Q47.76-32.67 44.23-37.27L44.23-37.27Q43.79-37.27 43.41-37.08L43.41-37.08Q41.90-36.20 39.88-32.79L39.88-32.79Q35.73-25.93 35.73-19.94L35.73-19.94Q35.73-16.98 36.86-15.41L36.86-15.41Q38.12-13.77 42.66-12.51L42.66-12.51L44.92-11.88Q48.39-10.94 50.47-9.49L50.47-9.49Q55.88-5.65 55.88 5.25L55.88 5.25Q55.88 10.73 53.93 16.46L53.93 16.46Q50.34 27.11 42.09 34.67L42.09 34.67Q33.46 42.54 24.52 42.54L24.52 42.54Q19.85 42.54 16.20 40.97L16.20 40.97Q5.62 36.37 5.74 19.49L5.74 19.49Q5.74 18.79 5.87 18.04L5.87 18.04Q6.44 14.32 8.77 13.57L8.77 13.57L18.47 10.16Q19.79 9.72 21.11 9.79L21.11 9.79Q23.38 9.97 23.38 12.05L23.38 12.05Q23.00 26.98 25.27 29.69L25.27 29.69Q26.47 29.69 27.41 29.31L27.41 29.31Q29.55 28.24 31.63 25.60L31.63 25.60Q36.48 19.42 36.48 10.92L36.48 10.92Q36.48 7.39 35.98 5.75L35.98 5.75Q34.85 2.42 29.55 1.09L29.55 1.09L27.54 0.59Q25.90 0.15 24.14-0.61L24.14-0.61Q15.95-4.45 15.95-13.27L15.95-13.27Q15.95-18.12 17.59-23.53L17.59-23.53Q20.92-34.56 28.67-42.68L28.67-42.68Q37.55-52.07 47.44-52.07Z"/><path xml:space="preserve" font-family="Allan" font-size="129" font-style="normal" font-weight="bold" style="stroke: none; stroke-width: 1; stroke-dasharray: none; stroke-linecap: butt; stroke-dashoffset: 0; stroke-linejoin: miter; stroke-miterlimit: 4; is-custom-font: none; font-file-url: none; fill: rgb(48,110,81); fill-rule: nonzero; opacity: 1; white-space: pre;" d="M122.42-52.19L122.42-52.19Q122.42-52.19 111.90-11.06L111.90-11.06L119.65-21.83Q120.09-22.46 120.79-23.35L120.79-23.35Q124.44-27.63 129.10-27.63L129.10-27.63L135.02-27.63Q136.09-27.63 137.10-27.38L137.10-27.38Q142.01-26.05 140.31-19.57L140.31-19.57L124.94 38.76Q124.38 40.52 121.79 40.52L121.79 40.52L111.59 40.52Q111.09 40.52 110.33 39.89L110.33 39.89Q109.70 39.39 110.08 38.00L110.08 38.00Q116.76 14.95 119.78 2.73L119.78 2.73Q120.72-1.05 120.35 0.59L120.35 0.59Q120.79-1.05 119.90-1.05L119.90-1.05Q119.21-1.05 117.89 1.09L117.89 1.09Q112.60 9.85 105.29 23.90L105.29 23.90Q102.20 29.88 100.88 32.34L100.88 32.34L99.50 37.75Q98.74 40.46 95.72 40.52L95.72 40.52L93.70 40.52L86.02 40.52Q85.26 40.52 84.51 40.34L84.51 40.34Q81.99 39.52 82.74 36.49L82.74 36.49L105.42-52.32Q106.17-55.03 109.20-55.09L109.20-55.09L119.65-55.09Q122.99-55.09 122.42-52.19Z"/><path xml:space="preserve" font-family="Allan" font-size="129" font-style="normal" font-weight="bold" style="stroke: none; stroke-width: 1; stroke-dasharray: none; stroke-linecap: butt; stroke-dashoffset: 0; stroke-linejoin: miter; stroke-miterlimit: 4; is-custom-font: none; font-file-url: none; fill: rgb(48,110,81); fill-rule: nonzero; opacity: 1; white-space: pre;" d="M180.02-27.50L180.02-27.50L190.22-27.50Q193.56-27.44 193.00-24.61L193.00-24.61L176.62 37.75Q175.86 40.46 172.84 40.52L172.84 40.52L162.64 40.52Q159.30 40.46 159.86 37.63L159.86 37.63L176.24-24.73Q177.00-27.44 180.02-27.50ZM179.39-44.38L179.39-44.38Q179.39-47.16 180.97-49.42L180.97-49.42Q183.67-53.20 188.71-53.20L188.71-53.20L190.48-53.20Q193.12-53.20 195.58-51.12L195.58-51.12Q198.92-48.23 198.92-44.38L198.92-44.38Q198.92-41.61 197.22-39.35L197.22-39.35Q194.44-35.69 189.34-35.69L189.34-35.69L187.71-35.69Q185.00-35.69 182.67-37.64L182.67-37.64Q179.39-40.35 179.39-44.38Z"/><path xml:space="preserve" font-family="Allan" font-size="129" font-style="normal" font-weight="bold" style="stroke: none; stroke-width: 1; stroke-dasharray: none; stroke-linecap: butt; stroke-dashoffset: 0; stroke-linejoin: miter; stroke-miterlimit: 4; is-custom-font: none; font-file-url: none; fill: rgb(48,110,81); fill-rule: nonzero; opacity: 1; white-space: pre;" d="M219.73 65.72L219.73 65.72L210.03 65.72Q208.58 65.72 207.57 64.96L207.57 64.96Q206.19 63.89 206.75 61.69L206.75 61.69L228.92-24.73Q229.62-27.38 232.70-27.50L232.70-27.50L243.16-27.50Q246.69-27.44 245.93-24.61L245.93-24.61L243.54-15.35L246.56-18.94Q249.14-22.02 250.47-23.41L250.47-23.41Q254.12-27.13 257.02-27.13L257.02-27.13L257.90-27.13Q260.04-27.00 264.20-22.97L264.20-22.97Q269.05-18.06 269.05-12.13L269.05-12.13Q269.05-11.38 268.92-10.24L268.92-10.24Q267.35 4.18 261.24 19.80L261.24 19.80Q255.69 33.91 250.72 37.75L250.72 37.75Q246.44 40.97 240.64 41.03L240.64 41.03Q235.03 41.03 230.06 37.37L230.06 37.37L223.51 62.95Q222.81 65.72 219.73 65.72ZM233.59 25.15L232.96 27.04Q233.21 27.11 233.46 27.23L233.46 27.23Q235.79 27.93 237.37 27.86L237.37 27.86Q238.81 27.86 239.63 27.30L239.63 27.30Q241.84 25.60 245.36 16.71L245.36 16.71Q250.15 4.62 251.73-4.20L251.73-4.20Q252.10-6.34 252.10-7.03L252.10-7.03Q252.10-7.98 251.10-7.98L251.10-7.98Q250.21-7.98 248.51-6.09L248.51-6.09Q246.44-3.82 244.42-0.42L244.42-0.42Q237.74 11.11 233.59 25.15L233.59 25.15Z"/></g>
</svg>